<?xml version="1.0" encoding="utf-8"?>
<!-- Generator: Adobe Illustrator 19.2.1, SVG Export Plug-In . SVG Version: 6.00 Build 0)  -->
<svg version="1.1" id="layer" xmlns="http://www.w3.org/2000/svg" xmlns:xlink="http://www.w3.org/1999/xlink" x="0px" y="0px"
	 viewBox="0 0 652 652" style="enable-background:new 0 0 652 652;" xml:space="preserve">
<path id="Trusted-Shops-Logo" d="M391.7,379.2c19.4,0,30.1,14.7,30.1,32.2c0,20.9-12.6,33.6-31.1,33.6c-18.8,0-29.8-14.3-29.8-32.4
	C360.9,393.4,373,379.2,391.7,379.2z M274,379.2c7.1,0,12.4,1.5,16.2,3.2l-3.2,11.6c-2.5-1.2-7-3-13.2-3c-6.2,0-9.2,2.8-9.2,6.1
	c0,4.1,3.6,5.9,11.7,9c11.2,4.2,16.4,10,16.4,19c0,10.7-8.2,19.8-25.5,19.8c-7.2,0-14.4-1.9-17.9-3.9l2.9-11.9c3.9,2,9.8,4,15.9,4
	c6.6,0,10-2.7,10-6.9c0-4-3-6.2-10.6-9c-10.5-3.7-17.4-9.5-17.4-18.8C250,387.5,259,379.2,274,379.2z M504.7,379.2
	c7.1,0,12.4,1.5,16.2,3.2l-3.2,11.6c-2.5-1.2-7-3-13.2-3c-6.2,0-9.2,2.8-9.2,6.1c0,4.1,3.6,5.9,11.7,9c11.2,4.2,16.4,10,16.4,19
	c0,10.7-8.2,19.8-25.5,19.8c-7.2,0-14.4-1.9-17.9-3.9l2.9-11.9c3.9,2,9.8,4,15.9,4c6.6,0,10-2.7,10-6.9c0-4-3-6.2-10.6-9
	c-10.5-3.7-17.4-9.5-17.4-18.8C480.7,387.5,489.7,379.2,504.7,379.2z M314.8,380.2v24.5h23.6v-24.5h14.3v63.7h-14.3v-26.7h-23.6
	v26.7h-14.4v-63.7H314.8z M449.2,379.7c8.8,0,15.1,1.7,19.3,5.1c4,3.2,6.8,8.5,6.8,14.7s-2.1,11.5-5.8,15.1
	c-4.9,4.6-12.1,6.7-20.6,6.7c-1.9,0-3.6-0.1-4.9-0.3v22.8h-14.2v-62.9C434.3,380.3,440.5,379.7,449.2,379.7z M391.3,390.6
	c-9.7,0-15.3,9.3-15.3,21.6c0,12.5,5.8,21.3,15.4,21.3c9.7,0,15.2-9.3,15.2-21.6C406.6,400.4,401.2,390.6,391.3,390.6z M450,390.6
	c-2.9,0-4.9,0.3-5.9,0.6V410c1.2,0.3,2.7,0.4,4.8,0.4c7.6,0,12.3-3.9,12.3-10.4C461.1,394.1,457.1,390.6,450,390.6z M124.4,196
	c57.1,0,103.4,46.6,103.4,104.1c0,57.5-46.3,104.1-103.4,104.1S21,357.6,21,300.1C21,242.6,67.3,196,124.4,196z M369.3,301.3v36.9
	c0,11,4.2,16.6,11.5,16.6c7.6,0,11.7-5.3,11.7-16.6v-36.9h14.4v35.9c0,19.8-9.9,29.2-26.5,29.2c-16.1,0-25.5-8.9-25.5-29.4v-35.7
	H369.3z M439.2,300.2c7.2,0,12.5,1.5,16.2,3.2l-3.2,11.7c-2.5-1.2-7.1-3-13.3-3s-9.3,2.9-9.3,6.2c0,4.1,3.6,5.9,11.8,9
	c11.2,4.2,16.5,10.1,16.5,19.1c0,10.7-8.2,19.9-25.7,19.9c-7.3,0-14.4-1.9-18-3.9l2.9-12c3.9,2,9.8,4,16,4c6.6,0,10.1-2.8,10.1-6.9
	c0-4-3-6.3-10.7-9c-10.6-3.7-17.5-9.6-17.5-18.9C415.1,308.6,424.2,300.2,439.2,300.2z M584.2,300.8c12.1,0,19.9,2.2,26.1,6.8
	c6.6,4.9,10.8,12.8,10.8,24.1c0,12.3-4.4,20.7-10.6,25.9c-6.7,5.6-16.9,8.3-29.4,8.3c-7.5,0-12.7-0.5-16.3-1v-62.9
	C570,301.3,576.9,300.8,584.2,300.8z M123.6,234.2c-36,0-65.2,29.4-65.2,65.6c0,36.2,29.2,65.6,65.2,65.6s65.2-29.4,65.2-65.6
	C188.7,263.6,159.6,234.2,123.6,234.2z M295.5,301.3v12.2h-17.4v51.9h-14.4v-51.9h-17.1v-12.2H295.5z M320.1,300.8
	c9.4,0,16.1,1.4,20.6,5c3.8,3,5.9,7.5,5.9,13.4c0,8.2-5.8,13.8-11.2,15.8v0.3c4.4,1.8,6.9,6.1,8.5,12c2,7.2,4,15.6,5.2,18.1h-14.7
	c-1-1.8-2.6-7-4.4-14.9c-1.7-8-4.4-10.2-10.3-10.3h-4.3v25.2H301v-63.2C305.6,301.4,312.5,300.8,320.1,300.8z M509.7,301.3v12.2
	h-17.4v51.9h-14.4v-51.9h-17.1v-12.2H509.7z M554.5,301.3v11.9h-24.8v13.3h23.4v11.8h-23.4v15.2h26.2v11.9h-40.6v-64.1H554.5z
	 M585.7,311.9c-3.2,0-5.3,0.3-6.5,0.6v41.9c1.2,0.3,3.2,0.3,5,0.3c13,0.1,21.5-7.1,21.5-22.4C605.8,318.9,598.1,311.9,585.7,311.9z
	 M136.4,255.3c10.7,0,25.1,4.4,25.1,17.4c0,23.4-36.5,31.3-54.4,35.9c-0.6,3.9-1.2,7.9-1.2,11.8c0,8.1,4.3,15.6,13.2,15.6
	c11.5,0,20.8-11.2,27.6-19.5l5.2,3.9c-9.5,14.1-22.7,27-40.4,27c-18.7,0-29.7-11.8-29.7-30.9C81.8,285.5,104.5,255.3,136.4,255.3z
	 M321.7,311.5c-3.5,0-5.5,0.3-6.5,0.5v17.7h5.7c7.2,0,11.4-3.6,11.4-9.2C332.3,314.6,328.3,311.6,321.7,311.5z M134.4,261.5
	c-14.8,0-22.5,29-25.3,40.4c13.8-4.1,33-15.6,33-31.9C142,265.2,139.3,261.5,134.4,261.5z"/>
</svg>
